{
	"asset":{
		"generator":"Khronos glTF Blender I/O v4.0.44",
		"version":"2.0"
	},
	"extensionsUsed":[
		"KHR_materials_emissive_strength"
	],
	"scene":0,
	"scenes":[
		{
			"name":"Scene",
			"nodes":[
				1
			]
		}
	],
	"nodes":[
		{
			"mesh":0,
			"name":"PlazmaCanonNew",
			"rotation":[
				0.7071068286895752,
				0,
				0,
				0.7071068286895752
			],
			"scale":[
				2.497697591781616,
				2.497697591781616,
				2.497697591781616
			],
			"translation":[
				0,
				1.2052019834518433,
				-0.9047582149505615
			]
		},
		{
			"children":[
				0
			],
			"name":"Empty"
		}
	],
	"materials":[
		{
			"doubleSided":true,
			"emissiveFactor":[
				1,
				1,
				1
			],
			"emissiveTexture":{
				"index":0
			},
			"extensions":{
				"KHR_materials_emissive_strength":{
					"emissiveStrength":5
				}
			},
			"name":"Material",
			"normalTexture":{
				"index":1,
				"scale":0.2999999523162842
			},
			"pbrMetallicRoughness":{
				"baseColorTexture":{
					"index":2
				},
				"metallicFactor":0.4545454978942871,
				"metallicRoughnessTexture":{
					"index":3
				}
			}
		}
	],
	"meshes":[
		{
			"name":"Cylinder.020",
			"primitives":[
				{
					"attributes":{
						"POSITION":0,
						"NORMAL":1,
						"TEXCOORD_0":2,
						"TEXCOORD_1":3
					},
					"indices":4,
					"material":0
				}
			]
		}
	],
	"textures":[
		{
			"sampler":0,
			"source":0
		},
		{
			"sampler":0,
			"source":1
		},
		{
			"sampler":0,
			"source":2
		},
		{
			"sampler":0,
			"source":3
		}
	],
	"images":[
		{
			"mimeType":"image/png",
			"name":"PlazmaCanon_Emissions",
			"uri":"PlazmaCanon_Emissions.png"
		},
		{
			"mimeType":"image/png",
			"name":"PlazmaCanon_Normalss",
			"uri":"PlazmaCanon_Normalss.png"
		},
		{
			"mimeType":"image/png",
			"name":"PlazmaCanon_BasicColor",
			"uri":"PlazmaCanon_BasicColor.png"
		},
		{
			"mimeType":"image/png",
			"name":"PlazmaCanon_Roughness",
			"uri":"PlazmaCanon_Roughness.png"
		}
	],
	"accessors":[
		{
			"bufferView":0,
			"componentType":5126,
			"count":2055,
			"max":[
				0.22776350378990173,
				0.9511095881462097,
				0.21661877632141113
			],
			"min":[
				-0.22776304185390472,
				-0.17669017612934113,
				-0.2254280298948288
			],
			"type":"VEC3"
		},
		{
			"bufferView":1,
			"componentType":5126,
			"count":2055,
			"type":"VEC3"
		},
		{
			"bufferView":2,
			"componentType":5126,
			"count":2055,
			"type":"VEC2"
		},
		{
			"bufferView":3,
			"componentType":5126,
			"count":2055,
			"type":"VEC2"
		},
		{
			"bufferView":4,
			"componentType":5123,
			"count":5568,
			"type":"SCALAR"
		}
	],
	"bufferViews":[
		{
			"buffer":0,
			"byteLength":24660,
			"byteOffset":0,
			"target":34962
		},
		{
			"buffer":0,
			"byteLength":24660,
			"byteOffset":24660,
			"target":34962
		},
		{
			"buffer":0,
			"byteLength":16440,
			"byteOffset":49320,
			"target":34962
		},
		{
			"buffer":0,
			"byteLength":16440,
			"byteOffset":65760,
			"target":34962
		},
		{
			"buffer":0,
			"byteLength":11136,
			"byteOffset":82200,
			"target":34963
		}
	],
	"samplers":[
		{
			"magFilter":9729,
			"minFilter":9987
		}
	],
	"buffers":[
		{
			"byteLength":93336,
			"uri":"PlazmaCanonFinal.bin"
		}
	]
}
